# xmcd
#
# Track frame offsets: 
#        150
#        22685
#        41385
#        61620
#        91290
#        122775
#        193912
#
# Disc length: 3050 seconds
#
# Revision: 1
# Processed by: cddbd v1.5.2PL0 Copyright (c) Steve Scherf et al.
# Submitted via: ExactAudioCopyFreeDBPlugin 1.0
#
DISCID=4d0be807
DTITLE=O.V. Wright - The Complete O.V. Wright on Hi Records
DYEAR=1999
DGENRE=Soul
TTITLE0=I'd Rather Be Blind, Crippled and Crazy (live in Japan)
TTITLE1=Ace of Spades (live in Japan)
TTITLE2=Eight Men, Four Women (live in Japan)
TTITLE3=Precious, Precious (live in Japan)
TTITLE4=Love and Happiness (live in Japan)
TTITLE5=Medley:  God Blessed Our Love - When a Man Loves a Woman - Tha
TTITLE5=t's How Strong My Love Is - You're Gonna Make Me Cry (live in 
TTITLE5=Japan)
TTITLE6=Into Something (Can't Shake Loose) (live in Japan)
EXTD=
EXTT0=
EXTT1=
EXTT2=
EXTT3=
EXTT4=
EXTT5=
EXTT6=
PLAYORDER=
